<?xml version="1.0" encoding="utf-8"?>
<!-- Generator: Adobe Illustrator 24.0.2, SVG Export Plug-In . SVG Version: 6.00 Build 0)  -->
<svg version="1.1" id="Layer_1" xmlns="http://www.w3.org/2000/svg" xmlns:xlink="http://www.w3.org/1999/xlink" x="0px" y="0px"
	 viewBox="0 0 512 512" style="enable-background:new 0 0 512 512;" xml:space="preserve">
<g>
	<path d="M64.9,118.2c1.5-6.2,4.3-11.6,8.7-16.4c0.9-1,0.8-3.3,0.5-4.9c-2.2-9.1-4.7-18.1-3.9-27.6c1.1-13.7,6.9-24.6,19.3-31.1
		c11-5.8,24.7-0.8,31.7,9.4c6.8,10,7.5,21.4,9.6,32.5c1.4,7.3,2.5,14.7,3.7,22.1c1.6,10.1,7.9,16.3,16.8,20.4c1,0.5,2.1,0.8,3,1.4
		c2.4,1.7,2.1,4.4-0.6,5.4c-4.5,1.6-8.8,0.9-12.8-1.6c-8.8-5.6-13.7-14.1-18.1-23.2c-3.8-7.7-4.9-15.8-5.3-24.2
		c-0.2-3.9-0.4-7.7-0.8-11.6c-0.6-7.3-4.5-12.8-10.1-17c-5.8-4.3-14.4-1-18.7,6.7c-4.1,7.3-4.5,15.1-3.5,23.2
		c0.5,4.5,0.6,9.1,0.9,14.2c-8.1-6-10-14-8.8-22.8C77.2,67,79.3,61,80.5,55c1.4-6.8,5.9-9.9,12.2-10.8c5-0.7,10.2-0.8,15.5-2
		c-3.5-0.6-7-1.9-10.4-1.7c-12,0.8-18,5.7-21.4,15.6c-4.9,14.5-3.3,27.8,3.3,41.1c1.3,2.6,3.1,2.7,5.2,2.1
		c5.6-1.6,10.3,0.1,14.8,3.3c4.4,3.1,4.8,8.3,1.1,12.3c-4.6,4.9-9.8,5.2-15.3,1.1c-1.1-0.8-2.6-1.2-3.9-1.8
		c-0.6,1.4-1.5,2.9-1.6,4.3c-0.2,4.7-0.1,9.5-0.1,14.2c0,3.5,1.7,5.6,5,6.5c1.3,0.4,2.7,0.5,4,0.9c6.8,1.9,10.1,10.5,6.5,16.5
		c-2,3.3-6.3,4.5-11.8,3.4c-1.7-0.4-3.3-0.8-5.5-1.4c6.1,15.4,19.2,23.5,31,32.8c-0.2,0.4-0.4,0.8-0.7,1.3c-2.2-0.2-4.6-0.1-6.7-0.8
		c-12.1-4.1-21.8-11.6-28.2-22.7c-2.4-4.1-3.3-9.3-3.9-14.2c-0.9-7.6-1.9-15.2-4.6-22.4C64.9,127.7,64.9,123,64.9,118.2z M81.2,147
		c2.2,1.8,3.8,3.3,5.7,4.5c0.6,0.4,1.9,0.4,2.5,0.1c0.5-0.3,0.9-1.5,0.8-2.2C89.5,146.1,85.4,144.5,81.2,147z"/>
	<path d="M243.8,8.9c0.7,0.9,1.5,1.7,2.1,2.6c1.5,2.6,1.4,5.1-1,7c-2.3,1.8-4.5,0.8-6.3-0.9c-2.5-2.3-1.2-4.4,0.5-6.5
		c0.6-0.7,1.2-1.5,1.8-2.2C241.8,8.9,242.8,8.9,243.8,8.9z"/>
	<path d="M317.3,56.9c6.2,3.5,12.1,6.8,18,10.1c0.1-0.1,0.3-0.3,0.4-0.4c-3.4-3.1-6.9-6.3-10.3-9.4c3.5-3.6,7.2-3.8,10.7-0.4
		c2.5,2.5,4.5,4.2,8.7,2.7c2.2-0.8,5.9,0.8,8.1,2.4c8.6,6.6,16.9,13.6,25.3,20.4c5,4.1,10.1,8.1,11.9,14.9c0.3,1.2,2.1,2.1,3.2,3
		c2,1.7,4.7,2.6,5.1,6c0.1,1.2,2.1,2.3,3.5,3.2c6.7,4.5,9,11.3,7,18.3c-2.1,7.5-0.5,13.6,2.7,20c3.3,6.5,3.7,13.1,0,19.6
		c-0.8,1.4-2.2,2.4-3.3,3.6c-0.4-0.1-0.9-0.2-1.3-0.3c-0.3-2.1-0.9-4.1-0.9-6.2c-0.2-12-2.7-23.5-8.9-33.9c-1.7-2.8-4.3-5.1-6.5-7.5
		c-1.2-1.4-2.7-2.6-3.7-4.1c-1.7-2.7-2.9-5.7-7.1-5.4c-1.1,0.1-2.4-1.6-3.5-2.6c-3.7-2.9-7.4-5.8-11.1-8.8c-2.5-2-4.9-4.2-7.6-6
		c-6.1-4.2-12.2-8.6-18.6-12.4c-7.1-4.1-14.3-8.2-21.9-11.3c-9.9-4.1-19.8-8.1-31-8.3c-17.3-0.3-31.3,7.6-45.6,15.5
		c-7.7,4.3-15.6,8.2-23,13c-5.7,3.8-10.6,8.7-15.8,13.1c-4.9,4.1-10.4,7.6-16.9,8c-7.8,0.6-15.7-0.5-22.3-5
		c-6.7-4.5-10.3-11.4-11.4-19.4c-0.9-6.8,1.9-9.9,8.8-10.3c1.1-0.1,2.5-0.5,3.3-1.2c5.5-4.6,11.5-5.4,18.2-3.5
		c1.4,0.4,2.9,0.6,4.4,0.9c5.4,1.1,9.7-0.1,13.7-4.4c13.3-14.5,29.2-25,48.7-29.6c15.6-3.7,31.1-2.5,46.5,1.4
		c7.4,1.9,15.1,3,21.8,7.4C320,52.6,320.2,53.1,317.3,56.9z M168.2,99.4c0.9,1.5,1.3,2.1,1.7,2.7c4.9,5.8,10.7,7,19.6,3.3
		c5.4-2.3,10.2-6.5,14.8-10.4c10.8-8.9,20.3-19.6,34.5-23.5c3.1-0.9,6.1-2.1,9-3.4c2.9-1.3,5.6-3,8.3-4.5c-0.2-0.3-0.3-0.6-0.5-1
		c-11.3,2.7-22.5,6-32.2,12.7c-9.7,6.6-18.9,14-28.4,21.1c-1.4-1.1-3.1-2.5-4.9-3.9c-0.2,0.3-0.5,0.5-0.7,0.8c1.3,2,2.7,3.9,4,5.8
		C188.1,105,179.6,105.2,168.2,99.4z"/>
	<path d="M183,365.1c6.2,6.6,13.9,10,17.1,17.8c0.8,2,2.2,2.3,4.2,1.3c4.2-2.1,6.5-5.2,6.6-10c0-2.7,0-5.6,0.9-8.1
		c1.9-5.1,5.7-7.2,12.6-7.8c0.7-3.9,1.7-7.8,2.1-11.8c0.6-6.7,4-10.5,10.8-11c3.4-0.2,4.9-1.5,5.2-4.9c0.2-2.6,0.8-5.2,1.3-7.7
		c1.8-8.1,3.5-9.4,12.4-10c7.1-0.5,14.2,0,21.3-0.1c5.6-0.1,11.1-0.7,16.7-0.6c3.1,0,6,0.9,5.8,5.1c-0.2,4.2-1.7,6.3-5.9,6.6
		c-10.4,0.8-20.8,1.6-31.1,2.2c-1.9,0.1-3.9-1-5.9-0.9c-1.8,0-5,0.6-5.2,1.4c-0.4,2.6-0.1,5.6,0.8,8.1c0.3,0.8,3.2,1.2,4.9,1.1
		c5.9-0.5,11.8-1.5,17.8-1.8c3.9-0.2,7.1,5.1,5.2,8.6c-0.5,0.9-1.9,1.5-3,1.7c-8.3,2.2-12.2,6.8-13.7,15.3c-0.5,2.8-1.8,5.7-3.5,8.1
		c-3.2,4.4-5.1,8.7-4.1,14.5c0.7,4.2-0.3,8.7-0.7,13c-0.3,4.3-1,8.6-1.2,12.9c-0.1,2.6-1,4.2-3,5.9c-4.4,3.7-9.4,4.4-14.7,5.3
		c-3.8,0.6-7.3,2.8-10.9,4.2c-2.5,0.9-5.1,2.4-7.6,2.4c-7.3-0.1-13.8-2.3-19.2-7.7c-4.5-4.5-9.3-8.6-14-12.8
		c-8.1-7.3-12.4-16.2-9.7-27C176.4,373.8,180.1,369.8,183,365.1z M242.3,395.6c-1.2-1-1.5-1.5-2-1.6c-7.8-2.4-16.1-1.4-23.9-3.7
		c-0.3-0.1-0.7,0.3-1,0.5c-2.2,1.7-4.3,3.4-6.6,5.2c1.1,1.2,1.6,2,2.3,2.4c3,1.8,5.5,3.7,6.8,7.4c1,2.7,9.5,5.2,11.4,3.5
		C233.9,405,238,400.2,242.3,395.6z M230.3,357.4c0.7-2,1.1-3,1.4-4c1.5-4.9,2.6-5.8,7.5-6c6.3-0.2,8.8-2.5,9.1-8.8
		c0.2-3.5-0.1-7,0.1-10.5c0.2-5.3,3.5-8.5,8.9-8.4c6.8,0.1,13.7,0.5,20.5,0.7c1.4,0,2.8,0,4.2,0c0.1-0.5,0.2-0.9,0.2-1.4
		c-1.7-0.5-3.5-1.5-5.2-1.6c-6.8-0.2-13.7-0.2-20.5,0c-5.4,0.2-10.6,3.5-11.1,10.4c-0.3,4-0.7,7.9-0.7,11.9c0,3.7-1.9,4.5-4.9,4.4
		C231.6,344.1,228.3,348.3,230.3,357.4z M243.7,372.5c-2.1-0.6-4-1.2-5.9-1.7c-2.4-0.6-4.7-1.5-7.1-1.6c-3.3-0.2-7,2.7-7,5.4
		c0,3.9,3,4.7,6,5.1c2.1,0.3,4.2,0.6,6.3,0.4C240.4,379.9,242.7,377.6,243.7,372.5z M256.4,349.7c-5,0-9.3,0.1-13.5,0
		c-2.5-0.1-4.3,0.4-5.4,3c-1.3,3.1,0,5.2,2.1,7.3c1.8,1.8,3.6,2.3,6,1.2C250.5,358.8,253.5,354.8,256.4,349.7z"/>
	<path d="M294.7,110.1c-0.1,2,0.3,4.1-0.3,5.9c-2.4,7.2,0.8,14,1.4,20.9c0.1,1.4,2.2,3.1,3.7,3.7c7.9,3.2,14.6,7.7,19.9,14.4
		c1.4,1.7,3.3,3,5.1,4.3c8.2,5.7,11,13.9,10.6,23.3c-0.3,6.5-5.1,9.9-11.6,9c-3.7-0.5-7.4-1.1-11.1-1.2c-3.6-0.1-6.6,2.1-6.2,5.5
		c0.7,5.7-2.8,7.7-6.6,9.9c-4.8,2.8-9.5,5.5-15.7,3.2c-5.3-2-9.3-4.9-10.8-10.4c-1.3-4.9-4.6-6.5-9.2-7.3c-4.7-0.8-9.5-1.8-14-3.5
		c-7.9-2.9-10.2-7.6-8-15.5c1.3-4.8,3.2-9.4,4.9-14.1c0.2-0.7,0.6-1.4,1.1-1.9c8.5-7.5,16.6-15.4,28.8-16.8c6.4-0.7,6.4-1.5,5.7-8.2
		c-0.8-8.2-0.4-16.4,2.4-24.3c0.6-1.8,1.3-3.5,1.7-5.3c0.6-2.6-0.3-4.4-3.1-5c-2.8-0.6-5.6-1.3-8.3-2.1c-4.3-1.2-5-3.4-2.2-6.7
		c3.5-4.2,7.1-7.6,13.6-6.3c3.6,0.7,7.6-0.6,11.5-0.9c6-0.6,12-1.1,16.7,3.9c0.4,0.4,1.6,0.4,2.3,0.3c7.3-1,12.9,2.7,15,9.7
		c0.7,2.4,2.1,4.7,3.6,6.7c1.7,2.3,2.8,11.1,0.9,13.1c-0.7,0.8-2.8,1.1-3.8,0.6c-1.4-0.6-2.7-2-3.5-3.3c-4.2-7.1-11.2-9-18.7-9.9
		c-3.6-0.4-7.2-0.7-10.8-0.8c-4.6-0.1-5.4,0.7-5.5,5.4c0,1.2,0,2.5,0,3.7C294.5,110.1,294.6,110.1,294.7,110.1z M268.2,173.3
		c11.4,9.2,41,8.9,50.6-0.5c-1.9-3.1-3.9-6.3-5.9-9.3c-1.6-2.3-3.6-2.9-6.5-2c-2,0.6-4.4,0.7-6.4,0.2c-5.5-1.4-10.2-0.6-14.7,2.9
		c-2,1.5-4.6,3.1-6.9,3C273.7,167.4,270.6,169.3,268.2,173.3z M328.7,173.2c-1.8,4.7-4.8,8.2-9.7,9.5c-13,3.2-26.1,6.1-39.5,1.6
		c-0.8-0.3-1.9,0.5-2.8,0.7c0.6,0.7,1.1,2,1.8,2.1c5.2,1,10.4,2.4,15.7,2.7c10.3,0.6,20.1-2.3,29.9-5.1c2.2-0.6,4.2-3.3,5.7-5.4
		C330.9,177.5,331.7,175.1,328.7,173.2z M275.7,144.7c-0.2-0.3-0.4-0.6-0.6-1c-0.3-0.1-0.7-0.2-1-0.2c-12.8,2.7-26,16.5-28.2,29.3
		c-0.1,0.7,0.4,1.5,0.7,2.2c0.8-0.4,2.1-0.5,2.4-1.1c1.4-2.6,2.7-5.2,3.8-8c2.9-7.3,7.5-13,14.8-16.4
		C270.4,148.3,273,146.4,275.7,144.7z M311.4,153.8c-3.9-5.8-9.6-6.3-14.8-8.8C297.4,149,304.9,153.4,311.4,153.8z"/>
	<path d="M334.9,390.8c5.1,1.3,10.2,3.2,15.4,3.9c5.3,0.8,10.8,0.7,16.3,0.6c1.8-0.1,3.8-1.2,5.3-2.4c3.7-3.2,3.2-6.6-1.1-8.7
		c-3.2-1.6-6.5-3.1-9.7-4.7c-2.6-1.3-3.3-3.4-2.5-6.3c0.5-1.6,0.6-3.3,0.9-5.2c3.8-0.9,7.8-0.6,11,2.1c10.3,8.7,20.7,5.8,30.9,0.4
		c4.6-2.4,8.3-6.4,12.4-9.7c-0.3-0.5-0.5-0.9-0.8-1.4c-1,0.2-2,0.3-2.9,0.6c-6.2,2.3-12.9-0.5-15.5-6.6c-1.5-3.5-0.6-7.1,3-9
		c3-1.6,6.4-3.2,9.7-3.5c7.1-0.7,12.3-4.1,15.7-10c3.2-5.6,5.8-11.5,8.5-17.4c0.5-1.1,0.9-2.5,0.7-3.6c-0.4-1.9-1.3-3.7-1.9-5.5
		c-2,0.8-4.4,1.1-6.1,2.4c-5.9,4.4-11.5,9.1-17.2,13.8c-2.4,2-4.8,3.9-7.1,6c-8.8,8.2-19.5,11.4-31.3,11.9
		c-8.1,0.4-15.6-0.9-21.9-6.6c-4.7-4.3-7.5-9.6-7.6-16c0-1.3,0.8-2.6,1.6-4.7c7.4,15.5,22.5,21.7,35.9,15.1
		c5.3-2.6,9.8-6.8,14.5-10.4c10-7.4,19.9-14.9,29.9-22.4c0.7-0.5,1.4-1,2.2-1.5c5-3.1,10.1-4.8,15.7-1c6.3,4.4,8.7,10.6,7.7,17.9
		c-1.7,12.2-6.1,23.3-14.4,32.6c-2.9,3.2-3.7,6.6-2.8,11c0.6,2.7,0.1,6.1-1,8.7c-6.3,14.5-17.7,23.1-32.7,27.1
		c-2.3,0.6-5.1-0.5-7.6-1.1c-2.6-0.6-5-0.6-5.5,2.6c-1.7,11.7-9.3,13.7-17.9,14.2c-10.1,0.7-19.2-2.3-27.2-8.4
		c-1.3-1-2.2-2.5-3.2-3.7C334.4,391.6,334.6,391.2,334.9,390.8z M417.4,302.3c0.2,0.5,0.4,1,0.7,1.5c1.4-0.7,2.7-1.4,4.1-2
		c3.9-1.5,7.5-5.9,11.9-2.7c4.3,3.1,5,8.2,4,13.2c-0.6,2.9-1.7,5.7-2.6,8.5c-4.4,13.5-13.2,22.8-26.6,27.6c-0.8,0.3-1.5,1.1-2.3,1.6
		c0.1,0.3,0.2,0.7,0.3,1c1.3-0.2,2.7-0.1,3.9-0.6c15.7-6.1,26-16.9,29.6-33.7c1.2-5.7,1.3-11.1-1.1-16.4c-2.3-5.1-6.5-7-11.2-4.7
		C424.4,297.6,421,300.1,417.4,302.3z"/>
	<path d="M174.9,417.7c-1.8,2.1-3.6,3.8-5,5.9c-0.9,1.4-1.7,3.2-1.6,4.8c0.2,2.2,1.5,4.2,2,6.4c0.6,2.6,1.5,4,4.6,4.6
		c2.4,0.5,4.4,3.3,6.5,5.2c1.2,1,2.4,2.8,3.9,0.8c3.9-5.5,8.2-5.4,13.4-0.7c0.4-2.4,0.7-4,0.8-5.6c0.4-4.6,2.5-6.8,7-7.2
		c1.2-0.1,2.5-0.1,3.7-0.1c3.3,0.1,6.8,0.2,8.2,3.8c1.6,4,0.9,7.8-1.9,11.2c-1.1,1.3-2.3,2.5-3.7,4c3.4,2.4,6.4,4.7,9.6,6.6
		c1,0.6,3,0,4.2-0.6c4.9-2.5,10-2.8,15.2-1.3c3.7,1.1,5.1,0.1,6.1-3.7c0.7-2.4,1.3-4.8,2.6-6.9c2.1-3.5,6.1-4.8,10.8-3.6
		c-0.8,1.9-1.2,4-2.3,5.5c-3.2,4.7-6.7,9.3-10.1,13.9c-4.4,6-10.7,7.9-17.7,8c-11.7,0.2-13.5,2-13.2,14c0.1,4.9-0.6,9.2-3.7,13.6
		c-5.5,8-24.6,7.7-30.1-4.3c-1.9-4.2-1.1-8.5,2.5-11.4c7.4-6,10.5-14.3,12.2-23.3c0.7-3.5,0.1-7.3,0.1-11.3c-2,0.9-4,1.7-5.8,2.7
		c-5.5,2.8-11.2,4.7-17.4,5.1c-5.2,0.3-7.8,3.1-8.6,9.5c-0.4,2.6-0.1,5.5,0.5,8.1c0.9,3.9,1.9,7.6-2.2,10.4
		c-4.3,2.9-8.8,4.1-13.7,1.5c-9.1-5-13.6-18.4-9.4-27.9c1.7-3.8,2.6-7.5,1.7-11.9c-1.3-6,0.7-10.9,6-14.6c2-1.4,3.5-4.1,4.4-6.5
		C158.4,413.7,166.7,411.2,174.9,417.7z M167.3,450.1c-2.3-2.6-4.1-4.8-6.1-6.8c-0.7-0.7-1.7-1-2.6-1.5c-0.1,1-0.6,2.1-0.3,2.9
		c1.6,4.3,0.8,8.2-1.2,12.1c-1.4,2.7-2.9,5.4-4.1,8.3c-0.3,0.8,0.1,2.3,0.7,3c1.9,1.9,4.1,3.5,6.8,5.7c0.3-1.2,1.1-2.7,0.8-4
		C159.5,462.2,160.2,455.5,167.3,450.1z M211.9,487.8c-0.5-3.8-2.1-7.8-1.1-11c1-3.1,4.6-5.4,7.1-8.1c-2.6-2.7-6.3-3.3-7.5-0.8
		c-3,6.3-5.8,12.8-9,19.9C205.2,487.8,208.4,487.8,211.9,487.8z"/>
	<path d="M219,197.3c-1.8,2.7-2.9,4.8-4.4,6.6c-0.9,1-2.8,2.3-3.6,2c-4.5-1.6-9.4-2.8-11.9-7.7c-0.1-0.2-0.2-0.6-0.4-0.6
		c-7.7-2.6-8.2-10.4-11.3-16.2c-4.8-8.9-8.3-18.3-8.4-28.7c-0.2-16.1,7.7-28.3,19-38.5c7.6-6.9,15.7-13.2,26.3-14.9
		c1.2-0.2,2.4-0.9,3.3-1.7c5.4-4.9,12.2-6.5,18.9-8.3c2.5-0.7,5-1.7,7.5-2.1c1.4-0.2,2.9,0.5,4.4,0.8c-0.5,1.4-0.7,3.3-1.7,4
		c-4.4,3.4-8.9,6.8-13.7,9.6c-9.7,5.5-17.6,13-24.5,21.5c-1.1,1.3-1.5,4.1-0.9,5.6c2.9,6.9,2.5,13.7-0.5,20.2
		c-2.6,5.5-4.2,11.1-3.9,17.3c0,1.1-0.5,3-1.2,3.2c-3.2,1-3.1,3.5-2.4,5.7c1.3,3.9,3.1,7.7,4.7,11.5
		C215.8,190.4,217.6,194.1,219,197.3z"/>
	<path d="M340.4,265.6c1.5,0.1,2.8,0.2,5.2,0.4c-1.5,1.2-2.2,2.3-3.1,2.5c-9.4,1.9-18.7,3.9-28.2,5.2c-5,0.7-10.2,0.3-15.3,0.1
		c-3.3-0.1-5.1,0.8-5.2,4.6c-0.1,3.7-1,7.4-1.7,12.1c5.1-0.8,9.7-1.5,14.2-2.3c2.7-0.5,5.3-1.2,8-1.8c5.7-1.2,7.6,0.4,7.3,6.3
		c0,1-0.3,1.9-0.5,3.1c-1.3-0.4-2.3-0.7-3.7-1.2c0.2,1.2,0.4,2.1,0.7,3.2c-4.4,1.1-8.8,2.8-13.2,3.1c-6.8,0.5-13.6,0.1-20.5,0.1
		c-2.9,0-5.8,0.4-8.6-0.2c-3-0.6-6.3-1.6-8.7-3.4c-3-2.2-2.1-5.4,1.7-6.2c3.8-0.8,7.6-1,11.5-1.3c5.5-0.5,6.2-1.4,3.3-6.4
		c-3.8-6.4-3.8-12.7,0.8-18.4c3.9-4.9,9.8-5.7,15.6-6c7.7-0.4,15.4-0.7,22.5,3.7c1.1,0.7,3.6,0,5-0.8c7.2-4.2,12.6-10.4,17.6-17
		c5.2-6.8,10.4-13.6,16-20.1c12.4-14.6,16.6-31.3,13.4-50.1c-1.2-6.8-2.6-13.7-3.8-20.5c-0.2-0.9-0.3-1.8-0.2-2.6
		c0.2-1.1,0.6-2.9,1.3-3.2c1.1-0.3,3,0,3.7,0.8c6,7.6,12.8,14.9,12.8,25.4c0,9.1,0.2,18.2-0.8,27.3c-0.7,6.3-2.7,12.6-8.5,16.7
		c-1.6,1.1-2.9,3.3-3.2,5.2c-1.6,10.9-8.8,17.3-17.8,21.5c-7.7,3.6-12.4,9.2-16.1,16.3c-0.4,0.8-0.8,1.6-1.1,2.4
		C340.5,264.5,340.5,265,340.4,265.6z M317.7,268.1c0-0.5,0-0.9,0.1-1.4c-2.8-3.3-6.9-2-10.4-2.9c-5.7-1.5-10.8,0.4-16,1.9
		c-1.2,0.4-2.6,2-2.8,3.1c-0.5,4.3-0.5,8.7-0.7,13.1c3.4-2.3,3.5-2.5,3.2-6.9c-0.4-5.7-0.1-6.6,5.5-7.6c3.7-0.7,7.6-0.5,11.4-0.4
		C311.3,267.1,314.5,267.7,317.7,268.1z"/>
	<path d="M287.9,403.4c-2.1-4.1,0.1-6.6,1.6-9c5.2-8.4,9.7-17.2,11.7-26.9c1.6-7.7,2.6-15.4,3.7-23.2c1.7-13,7.6-23.8,16.6-33.1
		c14.2-14.6,28-29.4,42.4-43.8c17.3-17.3,29.9-37.1,36-60.9c0.8-3.2,2.1-6.4,3.4-9.5c0.5-1.2,1.4-2.2,2.3-3.6
		c3.3,3.3,4.2,7.1,3.8,10.8c-0.6,6.9-1.1,14-2.8,20.7c-1.6,6.4-4.2,12.8-7.3,18.6c-10.5,19.3-24.7,35.9-42.1,49
		c-8.1,6.1-15.2,12.5-20.8,20.8c-7,10.3-13.9,20.7-21,30.9c-4.2,6.1-6.7,12.5-6.6,20.1c0,14.7-5.6,27.1-17,36.6
		C290.8,402,289.4,402.5,287.9,403.4z"/>
	<path d="M170.4,357.4c1.1-0.5,2.2-0.9,3.6-1.5c-3.5-10.6-0.5-20.5,3.5-30.6c1.7-4.3,0.7-10,0-15c-1.6-11.6-3.4-23.1-5.7-34.6
		c-0.8-3.8-3.5-7.3-5-11c-3.1-7.5-6.7-14.8-8.7-22.6c-2.5-9.6-3.6-19.5-5.1-29.3c-0.9-5.6,0.1-11.1,2.2-16.4
		c1.3-3.2,2.1-6.6,3.1-9.9c1.1-3.5,2.8-6.5,7.4-8.9c-0.5,5.4-0.6,9.9-1.4,14.3c-3,16.7-0.9,32.9,4.5,48.9
		c5.6,16.5,10.9,33.1,16.5,49.6c3.4,9.9,2.4,19.6-1,29.2c-4.2,11.9-6.9,23.9-4.9,36.5c0,0.2,0,0.5,0,0.7c-0.1,2.1,2.7,4.7-0.9,6
		C176.5,363.7,171.4,360.1,170.4,357.4z"/>
	<path d="M220.7,259.6c-0.3,3.6-0.5,7.2-0.9,10.8c-0.3,1.8-0.6,4-1.8,5.2c-6.5,6.6-12.6,13.8-22.5,15.2c-1.2,0.2-3-0.3-3.6-1.2
		c-0.5-0.8-0.1-2.6,0.4-3.6c0.7-1.4,1.8-2.7,2.9-3.9c10-11.1,6.3-20.9-0.8-29.8c-2.8-3.5-5.5-7.1-7.6-11c-3.1-5.7-2.8-11.8-0.2-17.6
		c0.6-1.2,2.1-2.6,3.4-2.8c1-0.2,2.6,1.2,3.2,2.3c4.1,7.3,9.9,12.7,16.8,17.1C216.9,244.9,221.3,250.9,220.7,259.6z"/>
	<path d="M274.9,211.9c-1,2.5-1.7,4.8-2.7,6.9c-8.5,18.2-17.1,36.4-25.3,54.7c-2.5,5.5-3.4,11.7-5.4,17.4c-1.7,4.9-4.1,9.6-6.2,14.3
		c-1,2.3-2.5,3.6-5.3,2.5c-2.7-1.1-3.1-2.9-2.3-5.4c4.5-13.5,8.7-27,14.9-40c6.1-12.7,12.4-25.3,18.9-37.8c1.1-2.2,1.5-4.7,2.5-7
		c1.1-2.6,2.3-5.3,4.1-7.4c0.8-1,3.1-1.4,4.6-1.3C273.5,209,274.2,210.8,274.9,211.9z"/>
	<path d="M317,249.7c-1.7-2.3-4-4.6-5.2-7.3c-3.7-8.8-7-17.7-10.4-26.6c-0.9-2.4-0.1-4.1,2.4-5c2.5-1,4.1,0.1,5,2.3
		c1.9,4.7,3.6,9.5,5.6,14.1c1.8,4,3.9,8,6.3,11.7C324.6,244.9,324.2,246.7,317,249.7z"/>
	<path d="M277.6,264.6c-5.2,0.1-8.5-4.1-7.1-8.3c2.4-7.2,5.1-14.3,7.6-21.4c0.9-2.5,2.3-3.4,4.8-2.5c2.6,0.9,3.1,2.6,2.1,5
		c-0.7,1.7-1.1,3.6-1.7,5.3c-2,5.8-3.5,11.7-2.9,17.9C280.8,263.3,279.4,264.5,277.6,264.6z"/>
	<path d="M385.9,467.1c-0.1,3.2-2.9,5.5-6.4,5.3c-3.4-0.1-6.1-2.5-6.1-5.3c0-3.4,3.2-6,7.2-5.9C383.8,461.4,386,463.8,385.9,467.1z"
		/>
	<path d="M473.2,135.5c-3.1,0-5.2-2.3-5.2-5.6c0.1-2.9,2.6-5.3,5.6-5.3c2.9,0.1,6,2.8,5.9,5.2C479.6,132.6,476.3,135.5,473.2,135.5z
		"/>
	<path d="M104.1,275.5c-3.7,0-5.8-2.1-5.9-6.1c0-2.9,1.5-4.3,4.3-4.4c3.4-0.1,6.9,2.7,6.8,5.5C109.3,273.4,107.1,275.5,104.1,275.5z
		"/>
	<path d="M328.9,388.8c-6.8,1-16.4-6.1-15.9-11.8C319.3,379.6,324.6,383.2,328.9,388.8z"/>
	<path d="M115.9,192c2.2-0.6,4.3-1.3,6.5-1.7c3.5-0.7,7.1-1.2,10.6-1.6c0.8-0.1,1.6,0.7,2.4,1.1c-0.4,0.8-0.7,2.1-1.3,2.4
		c-5.9,2.1-11.8,3.9-17.9,1.1C116.1,192.8,116,192.4,115.9,192z"/>
	<path d="M286,408.1c1.4,3.9,0.3,7.3-2.2,10.4c-0.5,0.6-1.8,1.1-2.5,0.8c-0.7-0.2-1.3-1.4-1.5-2.2
		C279.4,413.9,282.2,409.7,286,408.1z"/>
	<path d="M262.9,311.3c0.5-2.7-0.2-5.6,3.2-6.2c0.7-0.1,2.5,1.7,2.5,2.5C268.3,310.5,266.1,311.2,262.9,311.3z"/>
	<path d="M408.6,181.1c-1-0.8-2-1.7-3.3-2.9c1.2-1.3,2.3-2.6,3.4-3.8C412.2,177.8,412.2,178,408.6,181.1z"/>
	<path d="M261.2,435.7c1.6,0,3.3,0,5.8,0C263.6,439.1,263.6,439.1,261.2,435.7z"/>
</g>
</svg>
