<svg xmlns="http://www.w3.org/2000/svg" viewBox="0 0 967.77 577.7">
<style>
path{
    fill: black;
}
@media (prefers-color-scheme: dark){
    path{
        fill: white;
    }
}
</style>
<path d="M27,792.81,371.35,606.18l-.27-1.85c-3.9,1.89-10.68,4.34-18.08,2.67-2.25-.51-5.9-1.33-7-4-1.4-3.39,2.46-7,1.18-8.34-1.44-1.51-6.63,2.85-15.18,2.34l-1-.08A18,18,0,0,1,320,591V579c-9.4,7.26-21,5.22-25-1-2.66-4.11-2.06-10.15.81-15.34-6.42.85-11.82,1.19-15.81,1.34-7.25.26-9.93-.12-12-2a10.52,10.52,0,0,1-3-7c0-2.73-.09-5.46-.13-8.18A39.7,39.7,0,0,1,245,553c-4.61.12-9.27.25-12-3s-2.6-8.7,0-14a52,52,0,0,1-21,4c-5.11-.12-10.09-.34-14-4a14.49,14.49,0,0,1-4-7q2.26-5.44,4.52-10.9c-9.34-2.77-18.25-5.15-27-8.08-16.11-5.39-16.79-8.54-3.43-20.39-6.06-2.31-11.49-4.23-16.81-6.43-7.38-3.06-14.81-6.06-22-9.58-12.24-6-12.64-8.58-2.88-19.46-1.33,0-19.46-.4-24.43-11.16a11,11,0,0,1-1-7c1.14-5.13,6.76-9.14,14.3-10.24-8.47-5-15.75-9.25-23-13.56a25.8,25.8,0,0,1-6.68-4.34c-1.83-1.71-3.15-2.94-3.63-4.86-1.27-5.07,4.48-10.07,5.31-10.77a17.07,17.07,0,0,1,8.6-3.77L83,380c-5.06-1.55-9-5.35-10-10-1.4-6.63,3.35-14.32,11.64-16.55A25.36,25.36,0,0,1,75,340c-1.63-6-1.2-14.19,1.92-15.29,2.74-1,6.72,3.84,7.7,5,11.94,13.68,67.14,43.87,93.26,51.64,58.64,17.45,118.78,23.81,179.74,23.84a34.43,34.43,0,0,0,5-.32c1.28-.18,2.52-.66,5.54-1.49-4.21-5.15-7.93-9.47-11.39-14-.48-.64-5-6.47-10.47-14.63-5.91-8.88-6.38-10.77-5.89-12.57,1.43-5.24,10.2-6.91,12.13-7.24a89.6,89.6,0,0,0-4.9-8c-10.92-14.29-9.63-18.14,9.63-22.38-3.66-6.3-7-12.08-10.37-17.88a67.92,67.92,0,0,1-3.77-7c-2.85-6.36-5.27-11.76-3.07-15,2.07-3,7.78-3.49,13.71-1.87l4.53-.94c-4.61-7.95-9.23-15.11-12.93-22.72-1.52-3.14-2.64-8.59-1-10.56,1.8-2.17,7.59-3.06,10.56-1.85,4.58,1.87,7.46,2.08,9.27.88s1.74-3.13,2.94-10c2.15-12.26,3.86-14.42,5.63-15.09a4.5,4.5,0,0,1,3,0c3.12,1.22,3.75,6.27,3.88,7,1.49,8.75,39.92,73.67,55.56,89.86,54.6,56.5,118.51,99.91,189.63,133,6.32,2.93,12.05,7.31,18.57,9.56a17.73,17.73,0,0,0,12.72-.85c26.19-13.89,52-28.41,78.07-42.6,23.7-12.92,47.39-25.85,71.27-38.44,31.24-16.47,61.18-16.66,88.74,8.16a18.77,18.77,0,0,0,4.25,2.56c.51.25,1.26,0,3,0a58.36,58.36,0,0,0,0-7.37c-2.61-19.79-5.09-39.61-8.12-59.34-1.16-7.61,1.07-11,8.88-12,20.11-2.79,40.11-6.33,60.18-9.39,12.65-1.92,12.82-1.79,14.73,11.61q8.29,58.31,16.37,116.65c2.73,19.64,2.66,19.65-16.73,22.1-17.51,2.2-35.06,4.13-52.5,6.73C916,461,912,459,911.09,450.1c-1.36-13.23-3.85-26.35-6-39.49-.4-2.49-1.35-4.9-2.43-8.72-10.77,6.16-18.88,13.63-22.69,24-11.27,30.55-22.31,61.22-32.16,92.24-12.15,38.25-31.54,70.43-61.72,98.3C727,671,658.19,706.62,582.71,731.73c-40.49,13.46-80.43,29.36-123.28,32.7-28.05,2.18-56.44,1-84.63,0-31.58-1.09-63.12-5-94.67-4.92-15.95,0-32,5.92-47.82,9.66-76.11,18-90.15,26.58-124.42,29.77C88.88,800.71,61.31,800.93,27,792.81Z" transform="translate(-26.96 -222.24)"/></svg>
