<svg id="Layer_2" data-name="Layer 2" xmlns="http://www.w3.org/2000/svg" viewBox="0 0 805 474.73"><title>icon</title><path d="M106,745.37v-1.82c2.09-1.11,4.26-2.1,6.27-3.35q44-27.56,87.88-55.17c46.22-29.1,92.49-58.14,138.55-87.5,8.28-5.28,15.48-12.22,23.45-18,10-7.33,20.32-14.29,30.27-21.24-2-.49-4.76-1.43-7.63-1.88a360.71,360.71,0,0,1-79.31-21.68,324.85,324.85,0,0,1-94.78-58.22c-12.42-10.93-24.4-22.42-35.78-34.41-13.26-14-27.06-27.91-30.32-49.7L288.38,412c-1-2.87-1.14-4.05-1.72-5-11.46-18.13-22.65-36.45-34.57-54.28-12.14-18.17-23.79-36.3-22.59-60.45,4.43.81,8.36,1,11.91,2.26q60.16,21.15,120.22,42.61c31.06,11.13,62,22.68,93.07,33.73,29.93,10.64,60.07,20.7,90,31.34,20.89,7.42,41.53,15.54,62.38,23.08,8.16,2.94,16,2.92,24-2.22C670.15,397.8,709,372,749,348.2c20.56-12.23,43.48-14.29,65.3-.67,4.91,3.07,9.2,7.12,14.81,11.53L815,289.43c13.09-3,26.35-6,39.58-9.14,7.32-1.73,14.1-2.69,21.39-4.54,3,0,9-2.75,9-.75,2.93,13.83,6.59,27.37,9.32,41.24,3.32,16.83,6.11,33.77,9.56,50.57,1.93,9.38,7.12,31.12,7.12,32.94-12.3,2.17-24.63,4.62-36.9,6.93-11,2.06-21.9,4.38-33.19,6.66C837.07,396,833.52,380,829.3,361c-7,8.59-14.6,14.56-17.7,22.31-6.82,17-12.81,34.6-16.57,52.5-8.09,38.46-15.25,77.1-44.3,106.57C733.43,559.9,717,579,697.24,593.27c-33.9,24.43-69.29,47.11-108.68,62.39-8.88,3.45-17.81,6.84-26.48,10.77-32.36,14.67-65.79,25.84-100.92,31.62-26.15,4.3-52.37,8.26-78.46,12.93-20.77,3.73-41.37,8.42-62.09,12.47-21.59,4.23-43.11,9-64.87,12.1-31.64,4.54-63.46,7.8-95.19,11.67a60.64,60.64,0,0,0-7.3,1.78H140.53Z" transform="translate(-106 -274.27)"/></svg>