<svg id="Layer_2" data-name="Layer 2" xmlns="http://www.w3.org/2000/svg" viewBox="0 0 808 475.28"><defs><style>.cls-1{fill:#fff;}</style></defs><title>icon</title><path d="M106,744.62V742.8c2.09-1.11,4.26-2.09,6.27-3.35q44-27.54,87.88-55.16c46.22-29.11,92.49-58.14,138.55-87.51,8.28-5.28,15.48-12.22,23.45-18,10-7.32,20.32-14.28,30.27-21.23a74.13,74.13,0,0,0-7.63-1.88A361.82,361.82,0,0,1,305.48,534a325.09,325.09,0,0,1-94.78-58.23c-12.42-10.92-24.4-22.41-35.78-34.4-13.26-14-27.06-27.92-30.32-49.71l143.78,19.62c-1-2.87-1.14-4-1.72-5C275.2,388.14,264,369.82,252.09,352c-12.14-18.16-23.79-36.3-22.59-60.44,4.43.81,8.36,1,11.91,2.25q60.16,21.15,120.22,42.62c31.06,11.12,62,22.68,93.07,33.73,29.93,10.63,60.07,20.69,90,31.33,20.89,7.43,41.53,15.55,62.38,23.08,8.16,2.95,16,2.92,24-2.22C670.15,397.06,709,371.26,749,347.46c20.56-12.23,43.48-14.3,65.3-.68,4.91,3.07,9.2,7.12,14.81,11.53-4.83-23.94-9.34-46.27-14.05-69.63,13.09-3,26.35-6,39.58-9.13,7.32-1.73,14.58-3.69,21.86-5.55h9.09c2.93,13.83,6,27.62,8.76,41.49,3.32,16.83,6.11,33.77,9.56,50.57,1.93,9.38,7.12,31.12,7.12,32.94-12.3,2.18-24.63,4.63-36.9,6.93-11,2.07-21.9,4.39-33.19,6.66-3.84-17.32-7.39-33.37-11.61-52.38-7,8.59-14.6,14.56-17.7,22.31-6.82,17-12.81,34.6-16.57,52.5-8.09,38.47-15.25,77.1-44.3,106.58-17.3,17.55-33.7,36.66-53.49,50.92C663.34,617,628,639.64,588.56,654.91c-8.88,3.45-17.81,6.85-26.48,10.78-32.36,14.66-65.79,25.83-100.92,31.61-26.15,4.3-52.37,8.26-78.46,12.93-20.77,3.73-41.37,8.42-62.09,12.48-21.59,4.22-43.11,9-64.87,12.09-31.64,4.54-63.46,7.8-95.19,11.68a62.54,62.54,0,0,0-7.3,1.77H140.53Z" transform="translate(-106 -274)"/><path class="cls-1" d="M879.47,275c-7.28,1.86-14.54,3.82-21.86,5.55-13.23,3.13-26.49,6.12-39.58,9.13,4.71,23.36,9.22,45.69,14.05,69.63-5.61-4.41-9.9-8.46-14.81-11.53-21.82-13.62-44.74-11.55-65.3.68-40,23.8-78.82,49.6-117.93,74.88-7.95,5.14-15.81,5.17-24,2.22-20.85-7.53-41.49-15.65-62.38-23.08-29.92-10.64-60.06-20.7-90-31.33-31.09-11-62-22.61-93.07-33.73q-60-21.51-120.22-42.62c-3.55-1.25-7.48-1.44-11.91-2.25C231.3,316.69,243,334.83,255.09,353c11.92,17.83,23.11,36.15,34.57,54.28.58.92.74,2.09,1.72,5L147.6,392.61c3.26,21.79,17.06,35.73,30.32,49.71,11.38,12,23.36,23.48,35.78,34.4A325.09,325.09,0,0,0,308.48,535a361.82,361.82,0,0,0,79.31,21.68,74.13,74.13,0,0,1,7.63,1.88c-9.95,7-20.24,13.91-30.27,21.23-8,5.82-15.17,12.76-23.45,18-46.06,29.37-92.33,58.4-138.55,87.51q-43.9,27.65-87.88,55.16c-2,1.26-4.18,2.24-6.27,3.35V275Z" transform="translate(-106 -274)"/><path class="cls-1" d="M156.25,749.25a62.54,62.54,0,0,1,7.3-1.77c31.73-3.88,63.55-7.14,95.19-11.68,21.76-3.12,43.28-7.87,64.87-12.09,20.72-4.06,41.32-8.75,62.09-12.48,26.09-4.67,52.31-8.63,78.46-12.93,35.13-5.78,68.56-16.95,100.92-31.61,8.67-3.93,17.6-7.33,26.48-10.78C631,640.64,666.34,618,700.24,593.52c19.79-14.26,36.19-33.37,53.49-50.92,29-29.48,36.21-68.11,44.3-106.58,3.76-17.9,9.75-35.5,16.57-52.5,3.1-7.75,10.67-13.72,17.7-22.31,4.22,19,7.77,35.06,11.61,52.38,11.29-2.27,22.21-4.59,33.19-6.66,12.27-2.3,24.6-4.38,36.9-6.55V749.25Z" transform="translate(-106 -274)"/><path class="cls-1" d="M914,394.93c-2.4-9.29-5.19-18.49-7.12-27.87-3.45-16.8-6.24-33.74-9.56-50.57-2.73-13.87-5.83-27.66-8.76-41.49H914Z" transform="translate(-106 -274)"/><path class="cls-1" d="M109,745.62l34.53,3.63c-10.36,0-20.71.12-31.06-.16C111.28,749.06,110.16,746.83,109,745.62Z" transform="translate(-106 -274)"/></svg>